<?xml version="1.0" encoding="iso-8859-1"?>
<!-- Generator: Adobe Illustrator 16.0.0, SVG Export Plug-In . SVG Version: 6.00 Build 0)  -->
<!DOCTYPE svg PUBLIC "-//W3C//DTD SVG 1.1//EN" "http://www.w3.org/Graphics/SVG/1.1/DTD/svg11.dtd">
<svg version="1.1" id="Capa_1" xmlns="http://www.w3.org/2000/svg" xmlns:xlink="http://www.w3.org/1999/xlink" x="0px" y="0px"
	 width="24px" height="24px" viewBox="0 0 24 24" style="enable-background:new 0 0 24 24;" xml:space="preserve">
<g>
	<path d="M16,12c0,2.209-1.791,4-4,4s-4-1.791-4-4s1.791-4,4-4S16,9.791,16,12z M24,13h-3.059c-0.455,4.193-3.748,7.486-7.941,7.941
		V24h-2v-3.059C6.806,20.486,3.514,17.193,3.058,13H0v-2h3.058C3.514,6.806,6.806,3.514,11,3.058V0h2v3.058
		c4.193,0.456,7.486,3.749,7.941,7.942H24V13z M19.5,12c0-4.1-3.4-7.5-7.5-7.5c-4.1,0-7.5,3.4-7.5,7.5c0,4.1,3.4,7.5,7.5,7.5
		C16.1,19.5,19.5,16.1,19.5,12z"/>
</g>
<g>
</g>
<g>
</g>
<g>
</g>
<g>
</g>
<g>
</g>
<g>
</g>
<g>
</g>
<g>
</g>
<g>
</g>
<g>
</g>
<g>
</g>
<g>
</g>
<g>
</g>
<g>
</g>
<g>
</g>
</svg>
