<?xml version="1.0" encoding="iso-8859-1"?>
<!-- Generator: Adobe Illustrator 16.0.0, SVG Export Plug-In . SVG Version: 6.00 Build 0)  -->
<!DOCTYPE svg PUBLIC "-//W3C//DTD SVG 1.1//EN" "http://www.w3.org/Graphics/SVG/1.1/DTD/svg11.dtd">
<svg version="1.1" id="Capa_1" xmlns="http://www.w3.org/2000/svg" xmlns:xlink="http://www.w3.org/1999/xlink" x="0px" y="0px"
	 width="326.803px" height="326.802px" viewBox="0 0 326.803 326.802" style="enable-background:new 0 0 326.803 326.802;"
	 xml:space="preserve">
<g>
	<g>
		<path d="M188.549,234.777c-2.827-5.852-9.574-8.892-15.975-6.856c-5.096,1.642-8.536,6.101-9.066,11.139
			c-0.638-5.028-4.032-9.43-9.174-11.081c-6.354-2.041-13.103,1.015-15.922,6.896c-0.262,0.555-0.542,1.088-0.733,1.688
			c-2.227,7.001,1.644,14.426,8.591,16.653c1.377,0.424,2.703,0.631,4.028,0.631c5.621,0,10.871-3.604,12.622-9.212
			c0.243-0.657,0.344-1.31,0.45-1.968c0.031-0.191,0.111-0.388,0.132-0.585c0.026,0.192,0.091,0.384,0.117,0.575
			c0.101,0.657,0.207,1.315,0.408,1.973c2.276,6.944,9.753,10.75,16.697,8.523c6.954-2.278,10.766-9.756,8.539-16.689
			C189.087,235.864,188.808,235.315,188.549,234.777z"/>
		<path d="M189.336,18.103c-0.321,0.318-0.549,0.684-0.829,1.023c-4.235,5.222-3.945,12.865,0.933,17.694
			c2.542,2.599,5.929,3.87,9.331,3.87c3.055,0,6.068-1.129,8.538-3.233c0.275-0.238,0.58-0.43,0.839-0.688
			c5.194-5.196,5.152-13.575-0.052-18.771C202.902,12.853,194.467,12.907,189.336,18.103z"/>
		<path d="M118.225,18.528c-5.145,5.196-5.145,13.574,0.054,18.716c0.27,0.264,0.578,0.456,0.862,0.694
			c2.473,2.053,5.473,3.177,8.469,3.177c3.446,0,6.84-1.326,9.437-3.922c4.832-4.878,5.064-12.531,0.779-17.753
			c-0.274-0.339-0.513-0.704-0.831-1.018C131.799,13.277,123.369,13.332,118.225,18.528z"/>
		<path d="M228.887,86.716c-0.156,0.021-0.301,0.085-0.456,0.117c-6.96,1.279-11.775,7.79-10.729,14.89
			c0.953,6.628,6.576,11.345,13.101,11.345c0.467,0,0.938-0.037,1.403-0.078c0.161-0.016,0.337,0,0.508-0.026
			c7.208-1.062,12.246-7.795,11.236-15.006C242.888,90.693,236.156,85.654,228.887,86.716z"/>
		<path d="M226.452,210.952c3.438-6.468,1.108-14.468-5.364-17.973c-0.207-0.119-0.445-0.177-0.663-0.28
			c-6.296-3.003-13.929-0.616-17.305,5.582c-3.371,6.225-1.253,13.826,4.681,17.513c0.229,0.146,0.425,0.331,0.674,0.461
			c2.009,1.108,4.127,1.651,6.301,1.651C219.446,217.901,224.009,215.353,226.452,210.952z"/>
		<path d="M232.702,140.589c-0.16-0.021-0.326-0.005-0.486-0.021c-7.073-0.777-13.483,4.215-14.473,11.262
			c-1.03,7.1,3.77,13.652,10.76,14.89c0.166,0.026,0.321,0.094,0.487,0.114c0.631,0.108,1.263,0.16,1.858,0.16
			c6.52,0,12.189-4.826,13.147-11.454c0,0.055,0,0.055,0,0.055C245.011,148.331,239.962,141.596,232.702,140.589z"/>
		<path d="M237.741,183.808c2.175-6.99-1.751-14.426-8.741-16.596c-0.187-0.057-0.383-0.062-0.564-0.109
			c-6.882-1.807-13.908,2.051-16.026,8.865c-2.112,6.805,1.564,13.966,8.202,16.363c0.187,0.067,0.348,0.176,0.549,0.232
			c1.274,0.373,2.6,0.575,3.926,0.575C230.684,193.124,235.938,189.478,237.741,183.808z"/>
		<path d="M245.959,126.748c0-0.052,0-0.104,0-0.212c0-7.316-5.939-13.256-13.257-13.202c-0.16,0-0.326,0.042-0.486,0.046
			c-7.084,0.262-12.77,6.056-12.77,13.21c0,0.212,0,0.37,0,0.582c0.109,7.058,5.748,12.759,12.801,12.997
			c0.155,0.005,0.306,0.042,0.455,0.042c7.317,0,13.257-5.939,13.257-13.256C245.959,126.909,245.959,126.854,245.959,126.748z"/>
		<path d="M208.422,235.61c5.137-5.198,5.137-13.582-0.057-18.771c-0.259-0.259-0.554-0.445-0.823-0.678
			c-5.184-4.448-13.008-4.216-17.896,0.678c-4.883,4.878-5.064,12.521-0.818,17.756c0.279,0.337,0.508,0.694,0.818,1.015
			c2.594,2.584,5.996,3.863,9.393,3.863C202.421,239.473,205.823,238.158,208.422,235.61z"/>
		<path d="M127.929,239.587c3.394,0,6.786-1.274,9.385-3.874c0.313-0.315,0.547-0.673,0.821-1.01
			c4.243-5.219,4.005-12.878-0.875-17.755c-4.935-4.889-12.715-5.075-17.89-0.632c-0.27,0.228-0.567,0.414-0.826,0.673
			c-5.196,5.199-5.196,13.587,0,18.775C121.14,238.313,124.534,239.587,127.929,239.587z"/>
		<path d="M180.264,0.604c-7.001-2.173-14.426,1.698-16.599,8.696c-0.204,0.658-0.315,1.32-0.411,1.978
			c-0.029,0.192-0.106,0.375-0.117,0.567c-0.023-0.187-0.096-0.37-0.129-0.557c-0.117-0.663-0.249-1.325-0.456-1.988
			c-2.278-6.946-9.755-10.711-16.754-8.43c-6.946,2.281-10.711,9.755-8.432,16.702c0.191,0.595,0.44,1.154,0.712,1.703
			c2.227,4.57,6.881,7.418,11.855,7.418c1.38,0,2.812-0.212,4.138-0.637c5.142-1.696,8.536-6.152,9.066-11.188
			c0.635,5.036,4.089,9.437,9.168,11.029c6.4,2.035,13.101-1.098,15.918-6.959c0.27-0.549,0.543-1.09,0.735-1.691
			C191.133,10.255,187.265,2.833,180.264,0.604z"/>
		<path d="M94.1,140.428c0.158,0,0.311-0.041,0.471-0.046c7.094-0.253,12.785-6.105,12.785-13.261
			c0-7.169-5.706-12.922-12.815-13.155c-0.15-0.005-0.288-0.044-0.44-0.044c-7.371,0-13.256,5.939-13.256,13.256
			S86.78,140.428,94.1,140.428z"/>
		<path d="M89.01,70.333c-2.123,6.998,1.802,14.421,8.8,16.596c0.171,0.047,0.345,0.067,0.521,0.116
			c1.113,0.282,2.248,0.466,3.351,0.466c5.675,0,10.923-3.659,12.673-9.385c2.115-6.814-1.569-13.986-8.223-16.327
			c-0.181-0.062-0.342-0.163-0.525-0.217C98.604,59.409,91.182,63.332,89.01,70.333z"/>
		<path d="M94.045,113.546c0.176,0.016,0.344,0.016,0.521,0.026c0.46,0.039,0.921,0.075,1.388,0.075
			c6.47,0,12.143-4.771,13.098-11.399c0.981-7.091-3.814-13.59-10.807-14.833c-0.168-0.031-0.324-0.093-0.492-0.122
			c-7.213-1.059-13.947,4.031-14.955,11.296c0-0.055,0-0.055,0-0.055C81.745,105.805,86.835,112.539,94.045,113.546z"/>
		<path d="M95.954,167.156c0.637,0,1.274-0.053,1.911-0.109c0.163-0.025,0.313-0.088,0.477-0.113
			c6.998-1.29,11.803-7.845,10.763-14.893c-1.033-7.094-7.438-12.026-14.507-11.309c-0.168,0.016-0.329-0.005-0.497,0.021
			c-7.265,1.062-12.249,7.795-11.242,15.006C83.813,162.381,89.486,167.156,95.954,167.156z"/>
		<path d="M101.787,193.294c1.326,0,2.651-0.155,3.925-0.569c0.202-0.072,0.37-0.171,0.567-0.249
			c6.628-2.392,10.292-9.559,8.181-16.352c-2.115-6.805-9.199-10.61-16.034-8.804c-0.186,0.047-0.378,0.058-0.567,0.114
			c-7,2.175-10.872,9.538-8.697,16.544C90.918,189.691,96.166,193.294,101.787,193.294z"/>
		<path d="M112.127,218.056c2.121,0,4.295-0.528,6.31-1.642c0.243-0.129,0.445-0.32,0.678-0.461
			c5.918-3.691,7.99-11.345,4.624-17.527c-3.384-6.193-11.003-8.57-17.303-5.582c-0.223,0.114-0.456,0.165-0.673,0.279
			c-6.416,3.501-8.8,11.573-5.303,17.989C102.9,215.514,107.407,218.056,112.127,218.056z"/>
		<path d="M220.979,60.999c-0.191,0.06-0.357,0.166-0.555,0.233c-6.628,2.397-10.252,9.608-8.135,16.357
			c1.745,5.727,6.996,9.334,12.614,9.334c1.149,0,2.289-0.156,3.434-0.461c0.176-0.05,0.362-0.065,0.543-0.122
			c6.996-2.175,10.874-9.598,8.705-16.599C235.41,62.744,227.985,58.827,220.979,60.999z"/>
		<path d="M208.257,37.35c-0.249,0.132-0.445,0.318-0.684,0.461c-5.913,3.692-7.985,11.343-4.619,17.51
			c2.444,4.401,6.949,6.892,11.672,6.892c1.89,0,3.821-0.492,5.649-1.341c0.217-0.101,0.445-0.137,0.652-0.248
			c6.473-3.553,8.797-11.612,5.302-18.028C222.683,36.183,214.678,33.798,208.257,37.35z"/>
		<path d="M100.249,43.183c-3.446,6.416-1.059,14.476,5.356,17.976c0.223,0.117,0.461,0.158,0.688,0.264
			c1.826,0.839,3.734,1.326,5.621,1.326c4.72,0,9.279-2.545,11.667-6.947c3.366-6.224,1.245-13.828-4.679-17.518
			c-0.233-0.145-0.43-0.323-0.673-0.455C111.809,34.329,103.749,36.713,100.249,43.183z"/>
		<path d="M163.401,254.308l36.249,36.247l-36.249,36.247l-36.247-36.247L163.401,254.308z"/>
	</g>
</g>
<g>
</g>
<g>
</g>
<g>
</g>
<g>
</g>
<g>
</g>
<g>
</g>
<g>
</g>
<g>
</g>
<g>
</g>
<g>
</g>
<g>
</g>
<g>
</g>
<g>
</g>
<g>
</g>
<g>
</g>
</svg>
