<?xml version="1.0" encoding="iso-8859-1"?>
<!-- Generator: Adobe Illustrator 18.1.1, SVG Export Plug-In . SVG Version: 6.00 Build 0)  -->
<svg version="1.1" id="Capa_1" xmlns="http://www.w3.org/2000/svg" xmlns:xlink="http://www.w3.org/1999/xlink" x="0px" y="0px"
	 viewBox="0 0 459.584 459.584" style="enable-background:new 0 0 459.584 459.584;" xml:space="preserve">
<g>
	<g>
		<path style="fill:#010002;" d="M459.333,114.792c0.667,2.667,0,5.667-2,9l-55,82c-2,3.333-5.333,5-10,5c-2,0-3.667-0.333-5-1
			l-44-10v194c0,6.667-3.667,10-11,10h-215c-6.667,0-10-3.333-10-10v-194l-40,10c-4.667,2-8.333,0.667-11-4l-55-82
			c-1.333-2.667-1.667-5.333-1-8c0.667-3.338,2.667-5.672,6-7l111-53h52c6.667,0,10,3.333,10,10c0,10,5.5,18.5,16.5,25.5
			s22.333,10.5,34,10.5s23.167-3.5,34.5-10.5s17-15.5,17-25.5c0-6.667,3.333-10,10-10h52l110,52
			C456.666,109.125,458.666,111.459,459.333,114.792z"/>
	</g>
</g>
<g>
</g>
<g>
</g>
<g>
</g>
<g>
</g>
<g>
</g>
<g>
</g>
<g>
</g>
<g>
</g>
<g>
</g>
<g>
</g>
<g>
</g>
<g>
</g>
<g>
</g>
<g>
</g>
<g>
</g>
</svg>
