<?xml version="1.0" encoding="iso-8859-1"?>
<!-- Generator: Adobe Illustrator 17.1.0, SVG Export Plug-In . SVG Version: 6.00 Build 0)  -->
<!DOCTYPE svg PUBLIC "-//W3C//DTD SVG 1.1//EN" "http://www.w3.org/Graphics/SVG/1.1/DTD/svg11.dtd">
<svg version="1.1" id="Capa_1" xmlns="http://www.w3.org/2000/svg" xmlns:xlink="http://www.w3.org/1999/xlink" x="0px" y="0px"
	 viewBox="0 0 203.339 203.339" style="enable-background:new 0 0 203.339 203.339;" xml:space="preserve">
<path d="M105.752,103.183h-2.737h-7.984V20.5c0-11.322-9.178-20.5-20.5-20.5h-5.496c-11.322,0-20.5,9.178-20.5,20.5v82.683h-7.984
	h-2.737c-8.22,0-14.906,6.687-14.906,14.906v24.676c0,0.368,0.033,0.728,0.08,1.084v41.771c0,9.684,7.879,17.563,17.563,17.563
	h62.463c9.685,0,17.563-7.879,17.563-17.563v-41.771c0.047-0.356,0.08-0.716,0.08-1.084v-24.676
	C120.658,109.87,113.971,103.183,105.752,103.183z M112.658,142.765c0,0.113-0.092,0.206-0.205,0.206h-81.34
	c-0.113,0-0.205-0.092-0.205-0.206v-24.676c0-3.808,3.098-6.906,6.906-6.906h67.938c3.809,0,6.906,3.098,6.906,6.906V142.765z
	 M148.117,23.519c-1.697-2.939,0.424-6.612,3.818-6.612h18.497c3.393,0,5.514,3.673,3.818,6.612l-7.787,13.487
	c-0.353,0.611-0.791,1.118-1.279,1.545v56.091h-8V38.552c-0.488-0.427-0.927-0.935-1.279-1.545L148.117,23.519z M180.431,110.248
	v76.592c0,9.098-7.402,16.5-16.5,16.5h-5.496c-9.098,0-16.5-7.402-16.5-16.5v-76.592c0-4.193,3.411-7.604,7.604-7.604h23.287
	C177.02,102.643,180.431,106.054,180.431,110.248z"/>
<g>
</g>
<g>
</g>
<g>
</g>
<g>
</g>
<g>
</g>
<g>
</g>
<g>
</g>
<g>
</g>
<g>
</g>
<g>
</g>
<g>
</g>
<g>
</g>
<g>
</g>
<g>
</g>
<g>
</g>
</svg>
