<?xml version="1.0" encoding="iso-8859-1"?>
<!-- Generator: Adobe Illustrator 16.0.0, SVG Export Plug-In . SVG Version: 6.00 Build 0)  -->
<!DOCTYPE svg PUBLIC "-//W3C//DTD SVG 1.1//EN" "http://www.w3.org/Graphics/SVG/1.1/DTD/svg11.dtd">
<svg version="1.1" id="Capa_1" xmlns="http://www.w3.org/2000/svg" xmlns:xlink="http://www.w3.org/1999/xlink" x="0px" y="0px"
	 width="619.281px" height="619.282px" viewBox="0 0 619.281 619.282" style="enable-background:new 0 0 619.281 619.282;"
	 xml:space="preserve">
<g>
	<g>
		<defs>
			<rect id="SVGID_1_" x="0.001" y="133.872" width="619.282" height="351.538"/>
		</defs>
		<clipPath id="SVGID_2_">
			<use xlink:href="#SVGID_1_"  style="overflow:visible;"/>
		</clipPath>
		<path style="clip-path:url(#SVGID_2_);fill:#27241F;" d="M526.445,388.149l-0.606-1.83l-3.527-9.329v-0.161l-0.133-0.138
			c-0.474-1.237-3.072-5.826-12.572-2.92c-0.132,0-0.132,0-0.284,0v0.146c-12.989,3.831-50.78,15.151-93.293,27.229
			c-43.727,12.401-115.901,13.463-138.987,13.463c-4.75,0-7.49,0-7.49,0H38.997c0,0-14.719-0.075-19.502,11.956
			c-0.014,0.019-0.014,0.019-0.014,0.019L0.812,473.578c-1,2.636-3.437,11.832,10.7,11.832h405.295
			c9.462,0,11.491-5.954,11.927-9.462c0-0.796,0-1.422,0.171-2.01c-0.171-0.455-0.171-0.777-0.171-0.777h0.171
			c0.606-8.249,2.428-16.648,5.025-23.077c1.403-3.053,2.938-5.655,4.437-7.637c0.777-0.92,1.536-1.991,2.295-3.062
			c0.606-0.759,1.384-1.517,1.991-2.275c0.303-0.312,0.606-0.787,0.929-1.071c0.171-0.151,0.171-0.151,0.304-0.322
			c5.044-5.034,10.543-9.168,14.999-11.928c4.873-3.053,8.399-4.579,8.399-4.579c17.427-8.58,36.54-15.293,46.78-18.668l7.509-2.598
			C527.849,395.8,527.355,390.737,526.445,388.149L526.445,388.149z"/>
		<path style="clip-path:url(#SVGID_2_);fill:#27241F;" d="M619.283,437.061v0.133c0,0.835-0.133,1.792-0.284,2.466
			c-0.133,0.265-0.133,0.55-0.379,0.814c-0.171,0.551-0.417,1.375-0.683,1.916c-1.935,3.275-4.665,5.323-6.979,5.323
			c-0.55,0-1.232-0.284-1.764-0.55l-5.461-2.868l-3.963-2.323l-9.671-5.461l-1.118-0.673
			c-19.645-11.463-43.424-33.572-46.287-71.524c-3.128-41.082,11.074-82.718,13.255-113.967c1.631-11.614,4.096-26.755,4.096-41.631
			v-0.147c-0.683-15.686-4.646-26.893-10.523-34.667c-0.114-0.138-0.398-0.398-0.55-0.678
			c-18.545-20.479-46.249-15.691-56.242-13.107c-2.181,0.678-3.679,1.095-3.679,1.095c-10.239,3.546-21.977,9.689-33.695,20.213
			l16.099,21.418c5.063,6.688,3.527,16.388-3.147,21.437c0,0-0.417,0.261-1.062,0.678c-1.518,1.379-3.717,4.641-1.403,9.974
			c0.284,0.678,0.417,1.085,0.683,1.631l27.457,64.551c0.815,1.64,1.213,3.418,1.631,5.063h0.133c0,0,5.176,12.003,7.642,20.469
			c1.649,6.012-2.863,9.007-4.514,10.098c-43.518,18.839-64.148,21.427-95.814,29.078c-0.398,0.123-0.531,0.123-0.815,0.123
			c-42.969,10.647-118.063,11.069-129.658,11.069H47.354c0,0-4.902-0.279-4.356-7.105c4.902-18.82,13.231-37.403,24.698-55.151
			c0.279-0.545,0.678-1.214,1.502-2.588c8.467-14.335,52.283-80.125,163.927-117.11c1.1-0.545,2.181-0.83,3.28-1.09
			c18.156-6.021,38.228-11.192,60.205-15.165c6.276-0.962,12.401-1.36,18.413-1.63c0.407,0,0.673,0,1.09-0.271
			c1.223-0.147,2.588-0.147,4.086-0.284c28.818-1.494,56.521-1.773,74.535-1.773c0,0,0.152,0,0.285,0
			c10.638,0,16.099-3.276,17.18-4.091c0.151-0.28,0.284-0.28,0.284-0.28l9.955-7.504c4.911-3.546,11.339-4.086,16.25-1.361
			c0,0,9.955-10.106,26.907-17.739v-0.142c0.645-0.275,1.46-0.683,2.295-1.1c0.815-0.261,2.028-0.678,3.546-1.356
			c1.517-0.407,3.129-0.962,5.044-1.64c0.815-0.265,1.915-0.545,3.015-0.943c2.199-0.555,4.38-1.242,6.826-1.787
			c1.232-0.137,2.598-0.398,3.831-0.815c0.397-0.137,0.814-0.137,1.213-0.137c25.125-4.911,62.101-3.958,80.551,35.487
			c0.55,1.095,1.232,2.456,1.631,3.688c0.948,2.176,1.782,4.357,2.598,6.827c3.527,11.462,4.514,23.607,3.698,34.938
			c0,1.36-0.171,3.418-0.418,6.148c-1.649,14.871-6.826,48.737-11.055,75.076c0,0-0.151,1.085-0.397,2.863
			c-1.252,9.959-5.348,43.133-3.433,64.968c0.133,0.83,0.133,1.508,0.266,2.313c0,0,0,0.422,0.133,1.232
			c0.171,1.247,0.417,2.305,0.701,3.423c0.247,1.232,0.531,2.603,0.797,4.101c3.28,11.591,12.021,32.345,35.364,46.945h0.151
			c2.029,1.232,3.925,2.446,5.859,3.546h0.133l0.133,0.151l9.14,5.044C618.601,433.382,619.283,435.166,619.283,437.061
			L619.283,437.061z"/>
	</g>
</g>
<g>
</g>
<g>
</g>
<g>
</g>
<g>
</g>
<g>
</g>
<g>
</g>
<g>
</g>
<g>
</g>
<g>
</g>
<g>
</g>
<g>
</g>
<g>
</g>
<g>
</g>
<g>
</g>
<g>
</g>
</svg>
