<?xml version="1.0" encoding="iso-8859-1"?>
<!-- Generator: Adobe Illustrator 16.0.0, SVG Export Plug-In . SVG Version: 6.00 Build 0)  -->
<!DOCTYPE svg PUBLIC "-//W3C//DTD SVG 1.1//EN" "http://www.w3.org/Graphics/SVG/1.1/DTD/svg11.dtd">
<svg version="1.1" id="Capa_1" xmlns="http://www.w3.org/2000/svg" xmlns:xlink="http://www.w3.org/1999/xlink" x="0px" y="0px"
	 width="506.029px" height="506.029px" viewBox="0 0 506.029 506.029" style="enable-background:new 0 0 506.029 506.029;"
	 xml:space="preserve">
<g>
	<path d="M382.772,154.028c9.062-6.44,17.756-13.608,25.723-21.574c16.701-16.701,27.873-37.25,31.455-57.861
		c3.93-22.593-1.836-43.57-15.814-57.55C412.987,5.894,397.882,0,380.454,0c-24.816,0-50.961,11.912-71.73,32.681
		c-33.236,33.238-52.611,79.119-63.037,111.861c-7.72-32.901-23.103-77.322-53.009-107.229
		c-16.048-16.046-36.558-24.285-55.924-24.285c-15.827,0-30.89,5.502-42.13,16.743c-24.993,24.994-21.616,68.893,7.543,98.052
		c10.396,10.396,22.549,19.031,35.36,26.206H29.015v128h32v224h384V282.027h32v-128H382.772z M334.177,58.137
		C348.04,44.275,365.339,36,380.452,36c5.35,0,12.854,1.127,18.225,6.499c13.016,13.014,5.707,43.154-15.639,64.499
		c-21.975,21.973-51.531,37.084-77.217,47.03h-25.336C289.77,125.254,306.515,85.8,334.177,58.137z M113.981,74.473
		c-0.351-4.56-0.025-13.124,6.098-19.247c5.122-5.122,11.894-6.198,16.674-6.198l0,0c10.629,0,21.734,5.008,30.466,13.74
		c16.936,16.936,30.883,43.886,40.334,77.938c0.255,0.92,0.504,1.835,0.748,2.743c-0.908-0.243-1.823-0.492-2.743-0.748
		c-34.052-9.452-61.001-23.399-77.937-40.335C119.708,94.453,114.737,84.286,113.981,74.473z M221.015,474.027h-128v-208h128
		V474.027z M221.015,250.028h-160v-64h160V250.028z M413.015,474.027h-128v-208h128V474.027z M445.015,250.028h-160v-64h160V250.028
		z"/>
</g>
<g>
</g>
<g>
</g>
<g>
</g>
<g>
</g>
<g>
</g>
<g>
</g>
<g>
</g>
<g>
</g>
<g>
</g>
<g>
</g>
<g>
</g>
<g>
</g>
<g>
</g>
<g>
</g>
<g>
</g>
</svg>
