<?xml version="1.0" encoding="iso-8859-1"?>
<!-- Generator: Adobe Illustrator 16.0.0, SVG Export Plug-In . SVG Version: 6.00 Build 0)  -->
<!DOCTYPE svg PUBLIC "-//W3C//DTD SVG 1.1//EN" "http://www.w3.org/Graphics/SVG/1.1/DTD/svg11.dtd">
<svg version="1.1" id="Capa_1" xmlns="http://www.w3.org/2000/svg" xmlns:xlink="http://www.w3.org/1999/xlink" x="0px" y="0px"
	 width="372.035px" height="372.035px" viewBox="0 0 372.035 372.035" style="enable-background:new 0 0 372.035 372.035;"
	 xml:space="preserve">
<g>
	<g>
		<path d="M372.035,142.011L240.607,85.044c-2.204,7.365-5.883,13.189-10.255,17.902l-34.981-21.3V67.142
			c0-5.167-4.184-9.353-9.354-9.353c-10.507,0-19.05-8.546-19.05-19.053c0-10.5,8.543-19.05,19.05-19.05
			c10.504,0,19.054,8.549,19.054,19.05c0,5.167,4.177,9.353,9.353,9.353c5.163,0,9.353-4.187,9.353-9.353
			c0-20.822-16.939-37.755-37.759-37.755c-20.818,0-37.755,16.934-37.755,37.755c0,17.588,12.09,32.41,28.403,36.586v6.324
			L141.68,102.94c-4.372-4.713-8.038-10.538-10.251-17.896L0,142.011l28.482,77.74l69.718-26.11l-1.185,177.414h89.002h89.006
			l-1.182-177.414l69.721,26.11L372.035,142.011z M280.394,176.123l-25.44-9.527l0.177,27.173l1.06,158.58h-70.172H115.84
			l1.06-158.58l0.18-27.173l-25.447,9.527l-52.068,19.503l-15.926-43.471l98.979-42.897c0.886,1.251,1.821,2.436,2.773,3.602
			c4.284,5.218,9.216,9.535,14.468,13.095c15.369,10.406,33.433,14.261,45.654,14.589h0.505l0.506-0.012
			c1.449-0.036,14.626-0.548,29.508-6.29c5.895-2.277,11.144-5.164,15.966-8.406c5.59-3.754,10.419-8.123,14.48-13.082
			c0.974-1.179,2.058-2.269,2.929-3.511l98.985,42.907l-15.924,43.471L280.394,176.123z M186.018,97.853l27.883,16.971
			c-14.029,6.637-27.883,7.008-27.883,7.008s-13.85-0.38-27.885-7.015L186.018,97.853z"/>
	</g>
</g>
<g>
</g>
<g>
</g>
<g>
</g>
<g>
</g>
<g>
</g>
<g>
</g>
<g>
</g>
<g>
</g>
<g>
</g>
<g>
</g>
<g>
</g>
<g>
</g>
<g>
</g>
<g>
</g>
<g>
</g>
</svg>
