<?xml version="1.0" standalone="no"?>
<!DOCTYPE svg PUBLIC "-//W3C//DTD SVG 20010904//EN"
 "http://www.w3.org/TR/2001/REC-SVG-20010904/DTD/svg10.dtd">
<svg version="1.0" xmlns="http://www.w3.org/2000/svg"
 width="512.000000pt" height="512.000000pt" viewBox="0 0 512.000000 512.000000"
 preserveAspectRatio="xMidYMid meet">
<metadata>
Created by potrace 1.13, written by Peter Selinger 2001-2015
</metadata>
<g transform="translate(0.000000,512.000000) scale(0.100000,-0.100000)"
fill="#000000" stroke="none">
<path d="M418 4920 c-80 -24 -152 -105 -164 -186 -17 -117 27 -197 159 -289
323 -225 1187 -840 1187 -845 0 -6 -464 -297 -1020 -641 -299 -184 -334 -221
-334 -354 0 -84 23 -135 84 -187 62 -54 146 -72 221 -47 19 7 364 219 768 473
786 494 838 531 887 634 65 137 20 280 -120 391 -114 89 -1430 1006 -1485
1033 -56 29 -125 36 -183 18z"/>
<path d="M2539 4916 c-56 -20 -96 -53 -126 -104 -24 -40 -28 -58 -28 -122 0
-64 4 -82 28 -122 32 -55 34 -57 267 -221 432 -305 940 -664 987 -699 l53 -38
-403 -269 c-540 -360 -1535 -1018 -2002 -1324 -209 -137 -397 -265 -418 -285
-125 -120 -120 -310 10 -440 50 -50 103 -86 633 -430 780 -507 887 -576 920
-590 81 -35 196 -9 257 56 69 74 89 195 46 277 -35 67 -104 119 -453 342 -734
467 -859 548 -860 554 0 6 1523 1013 2615 1731 217 142 271 203 295 326 21
115 -26 214 -150 314 -98 79 -1448 1018 -1492 1038 -50 23 -126 25 -179 6z"/>
<path d="M4579 2767 c-41 -22 -244 -159 -1142 -770 -186 -126 -363 -252 -392
-279 -150 -137 -146 -337 10 -475 30 -26 206 -147 392 -268 186 -120 500 -325
698 -454 454 -295 453 -295 530 -295 219 1 321 273 159 425 -22 20 -167 119
-324 219 -735 470 -940 604 -938 611 3 7 764 533 1138 787 154 104 164 113
195 176 62 124 8 278 -117 330 -58 25 -156 21 -209 -7z"/>
</g>
</svg>
