<?xml version="1.0" encoding="iso-8859-1"?>
<!-- Generator: Adobe Illustrator 19.1.0, SVG Export Plug-In . SVG Version: 6.00 Build 0)  -->
<svg version="1.1" id="Capa_1" xmlns="http://www.w3.org/2000/svg" xmlns:xlink="http://www.w3.org/1999/xlink" x="0px" y="0px"
	 viewBox="0 0 340.203 340.203" style="enable-background:new 0 0 340.203 340.203;" xml:space="preserve">
<g>
	<g id="Thunder">
		<g>
			<path d="M326.002,11.319H11.316c0,0-11.451,0.952-11.315,11.451c0.113,10.499,11.338,11.338,11.338,11.338h204.076L34.014,79.458
				c-7.12,1.587-12.086,3.764-11.338,11.338c0.748,7.596,4.036,11.338,11.338,11.338H192.74L56.689,136.145
				c-6.984,1.814-12.222,3.877-11.338,11.338c0.862,7.483,4.127,11.338,11.338,11.338H192.74L79.364,192.833
				c-6.644,2.313-12.449,4.127-11.338,11.338c1.111,7.211,4.354,11.338,11.338,11.338h90.701l-68.025,22.675
				c-5.941,3.061-12.879,4.603-11.338,11.338c1.497,6.734,4.716,11.338,11.338,11.338h79.363l-56.688,56.688l22.675,11.338
				l68.025-68.025c0,0,11.088-2.789,11.338-11.338c0.227-8.208-6.372-11.338-11.338-11.338h-45.35l68.025-22.675
				c5.918-3.061,11.542-3.288,11.338-11.338c-0.159-6.893-4.716-11.338-11.338-11.338H147.39l124.713-34.013
				c6.644-2.29,12.449-4.127,11.338-11.338c-1.111-7.211-4.354-11.338-11.338-11.338H147.39l158.726-34.013
				c6.984-1.791,12.222-3.855,11.338-11.338c-0.862-7.46-4.127-11.338-11.338-11.338H136.052l192.739-45.35
				c7.12-1.565,12.086-3.764,11.338-11.338C339.38,15.196,333.28,11.319,326.002,11.319z"/>
		</g>
	</g>
</g>
<g>
</g>
<g>
</g>
<g>
</g>
<g>
</g>
<g>
</g>
<g>
</g>
<g>
</g>
<g>
</g>
<g>
</g>
<g>
</g>
<g>
</g>
<g>
</g>
<g>
</g>
<g>
</g>
<g>
</g>
</svg>
